<svg xmlns="http://www.w3.org/2000/svg" width="300" height="300" viewBox="0 0 300 300">
  <g>
    <path d="M293.78,43.27l-11.71-5a2,2,0,0,0-2.74,1.46l-1,5.18a21.88,21.88,0,0,1-6.45,11.84c-16.12,15.35-55.88,52.84-89.16,81.35,5.38.88,10.29,1.49,15,2.06,11.34,1.39,21.52,2.64,33.7,7.44,25.06-29,46.53-63.87,57.49-82.79a41.4,41.4,0,0,0,4.88-13.11L295,45.48A2,2,0,0,0,293.78,43.27Z"/>
    <path d="M285.51,194c-6.17-10.85-26.91-27.28-43.06-36.17-17.84-9.8-29.95-11.28-45.29-13.16-14.14-1.73-30.33-3.73-55.85-12.8-5-1.26-53.51-20.5-69.29-27.76L67.14,74.51,34.59,91.13v15.56a2.05,2.05,0,0,0,1.28,1.86A682.14,682.14,0,0,1,101.62,138c17,8.52,29.44,16.56,48.23,26.89C100,203.41,59.71,231.47,34.54,248.3a23.29,23.29,0,0,1-14.34,3.86l-11.75-.75a2,2,0,0,0-.91,3.83l11.72,5a1.84,1.84,0,0,0,.51.14l8.13,1.08a62.64,62.64,0,0,0,34-5c36.86-16.63,89-42.4,128.54-71,18.88,7.88,51.17,19.09,82.19,19.09,2.88,0,5.77-.1,8.64-.31,1.22-.09,3.56-.37,5-1.94C288.11,200.11,287.38,197.47,285.51,194Zm-41.74-4.46c-15.16-4.67-30.52-10.37-45.63-16.54a4.56,4.56,0,0,1-2.58-2.72c-3.6-10.28-5.7-18.53-3.13-22.18,17,2.15,29.32,2.91,48.1,13.22a164.54,164.54,0,0,1,26.37,18.32c-5.42,1.42-12.2,4.8-20.73,9.63A3,3,0,0,1,243.77,189.53Z"/>
    <path d="M80.71,47.58a2,2,0,0,0-1.14-1.26L60.41,38.18a2,2,0,0,0-2,.27L5.77,79.57A2,2,0,0,0,6.21,83l19.17,8.14a2.08,2.08,0,0,0,.78.15,2,2,0,0,0,.9-.21l38.2-19.47a1.93,1.93,0,0,0,.75-.67L80.45,49.26A2,2,0,0,0,80.71,47.58Z"/>
  </g>
</svg>